<mxfile host="app.diagrams.net" modified="2022-06-13T11:30:01.519Z" agent="5.0 (X11)" etag="84jaDp4mOZaDN_-1fkTS" version="17.1.3" type="github">
  <diagram id="x-fd_vOZyYf5arpJ1Qvz" name="第 1 页">
    <mxGraphModel dx="784" dy="338" grid="1" gridSize="10" guides="1" tooltips="1" connect="1" arrows="1" fold="1" page="1" pageScale="1" pageWidth="827" pageHeight="1169" math="0" shadow="0">
      <root>
        <mxCell id="0" />
        <mxCell id="1" parent="0" />
        <mxCell id="c3U9nOlslPBBJcvzYLpn-2" value="" style="rounded=0;whiteSpace=wrap;html=1;fillColor=#99FFCC;" vertex="1" parent="1">
          <mxGeometry x="140" y="60" width="340" height="210" as="geometry" />
        </mxCell>
        <mxCell id="c3U9nOlslPBBJcvzYLpn-4" value="" style="rounded=0;whiteSpace=wrap;html=1;fillColor=#66B2FF;" vertex="1" parent="1">
          <mxGeometry x="170" y="90" width="280" height="160" as="geometry" />
        </mxCell>
        <mxCell id="c3U9nOlslPBBJcvzYLpn-5" value="" style="rounded=0;whiteSpace=wrap;html=1;fillColor=#67AB9F;" vertex="1" parent="1">
          <mxGeometry x="200" y="120" width="230" height="110" as="geometry" />
        </mxCell>
        <mxCell id="c3U9nOlslPBBJcvzYLpn-6" value="" style="rounded=0;whiteSpace=wrap;html=1;fillColor=#CCCCCC;" vertex="1" parent="1">
          <mxGeometry x="250" y="145" width="120" height="60" as="geometry" />
        </mxCell>
        <mxCell id="c3U9nOlslPBBJcvzYLpn-15" value="Board" style="text;html=1;strokeColor=none;fillColor=none;align=center;verticalAlign=middle;whiteSpace=wrap;rounded=0;" vertex="1" parent="1">
          <mxGeometry x="285" y="250" width="60" height="30" as="geometry" />
        </mxCell>
        <mxCell id="c3U9nOlslPBBJcvzYLpn-16" value="Machine" style="text;html=1;strokeColor=none;fillColor=none;align=center;verticalAlign=middle;whiteSpace=wrap;rounded=0;" vertex="1" parent="1">
          <mxGeometry x="285" y="230" width="60" height="30" as="geometry" />
        </mxCell>
        <mxCell id="c3U9nOlslPBBJcvzYLpn-19" value="Arch" style="text;html=1;strokeColor=none;fillColor=none;align=center;verticalAlign=middle;whiteSpace=wrap;rounded=0;" vertex="1" parent="1">
          <mxGeometry x="285" y="205" width="60" height="30" as="geometry" />
        </mxCell>
        <mxCell id="c3U9nOlslPBBJcvzYLpn-20" value="CPU" style="text;html=1;strokeColor=none;fillColor=none;align=center;verticalAlign=middle;whiteSpace=wrap;rounded=0;" vertex="1" parent="1">
          <mxGeometry x="285" y="175" width="60" height="30" as="geometry" />
        </mxCell>
        <mxCell id="c3U9nOlslPBBJcvzYLpn-23" value="arch/arm/cpu/armv8" style="text;html=1;strokeColor=none;fillColor=none;align=center;verticalAlign=middle;whiteSpace=wrap;rounded=0;" vertex="1" parent="1">
          <mxGeometry x="260" y="150" width="110" height="30" as="geometry" />
        </mxCell>
        <mxCell id="c3U9nOlslPBBJcvzYLpn-24" style="edgeStyle=orthogonalEdgeStyle;rounded=0;orthogonalLoop=1;jettySize=auto;html=1;exitX=0.5;exitY=1;exitDx=0;exitDy=0;" edge="1" parent="1" source="c3U9nOlslPBBJcvzYLpn-23" target="c3U9nOlslPBBJcvzYLpn-23">
          <mxGeometry relative="1" as="geometry" />
        </mxCell>
        <mxCell id="c3U9nOlslPBBJcvzYLpn-25" value="arch/arm(__main)" style="text;html=1;strokeColor=none;fillColor=none;align=center;verticalAlign=middle;whiteSpace=wrap;rounded=0;" vertex="1" parent="1">
          <mxGeometry x="285" y="120" width="60" height="30" as="geometry" />
        </mxCell>
        <mxCell id="c3U9nOlslPBBJcvzYLpn-26" value="arch/arm/mach-k3" style="text;html=1;strokeColor=none;fillColor=none;align=center;verticalAlign=middle;whiteSpace=wrap;rounded=0;" vertex="1" parent="1">
          <mxGeometry x="260" y="90" width="120" height="30" as="geometry" />
        </mxCell>
        <mxCell id="c3U9nOlslPBBJcvzYLpn-27" value="&lt;div&gt;board/xxx/xxx/board.c&lt;/div&gt;&lt;div&gt;board/siemens/iot2050/board.c&lt;/div&gt;" style="text;html=1;strokeColor=none;fillColor=none;align=center;verticalAlign=middle;whiteSpace=wrap;rounded=0;" vertex="1" parent="1">
          <mxGeometry x="225" y="60" width="170" height="30" as="geometry" />
        </mxCell>
      </root>
    </mxGraphModel>
  </diagram>
</mxfile>
